# xmcd
#
# Track frame offsets: 
#        150
#        13954
#        28302
#        48122
#        66730
#        88902
#        105098
#        121105
#        138883
#        160833
#        178688
#        193995
#        208667
#        227303
#        240640
#        262208
#        279073
#        292226
#
# Disc length: 4099 seconds
#
# Revision: 0
# Processed by: cddbd v1.5.2PL0 Copyright (c) Steve Scherf et al.
# Submitted via: ExactAudioCopyFreeDBPlugin 1.0
#
DISCID=08100112
DTITLE=Magic Sam Blues Band - Black magic
DYEAR=1968
DGENRE=Blues
TTITLE0=I just want a little bit
TTITLE1=What have i done wong
TTITLE2=Easy, baby
TTITLE3=You belong to me
TTITLE4=It's all your fault
TTITLE5=Same old blues
TTITLE6=You don't love me
TTITLE7=San-Ho-Zay
TTITLE8=You better stop
TTITLE9=Keep on loving me, baby
TTITLE10=What have i done wrong 8alt)
TTITLE11=I just want a little bit (alt)
TTITLE12=Everythings gonna be all right (alt)
TTITLE13=Keep on doin' what you're doin'
TTITLE14=Blues for Odie Payne
TTITLE15=Same old blues
TTITLE16=What have i done wrong (alt)
TTITLE17=Keep on loving me, baby (alt)
EXTD=
EXTT0=
EXTT1=
EXTT2=
EXTT3=
EXTT4=
EXTT5=
EXTT6=
EXTT7=
EXTT8=
EXTT9=
EXTT10=
EXTT11=
EXTT12=
EXTT13=
EXTT14=
EXTT15=
EXTT16=
EXTT17=
PLAYORDER=
